<svg version="1.1" id="Layer_3" xmlns="http://www.w3.org/2000/svg" xmlns:xlink="http://www.w3.org/1999/xlink" x="0px" y="0px"
	 viewBox="0 0 512 512" style="enable-background:new 0 0 512 512;" xml:space="preserve">
<g transform="matrix(.1 0 0 -.1 0 512)">
<style type="text/css">
	.st0{fill:#53B7E9;}
</style>
<path class="st0" d="m237 5099c-26-14-45-34-58-62-24-53-23-81 1-134 18-41 26-46 219-143 213-106 239-113 301-82 55 27 83 77 78 138-7 86-26 103-239 209-207 104-234 110-302 74z"/>
<path class="st0" d="m1715 5105c-137-30-267-105-355-203-57-64-131-208-151-292-17-77-15-222 5-300 9-36 32-99 52-140 35-72 62-101 628-668 476-477 598-595 629-604 79-24 65-36 703 604 566 568 593 596 628 668 50 106 67 178 67 295 0 115-17 189-65 290-128 266-427 411-721 350-38-8-108-33-155-56-77-38-102-59-252-207l-168-166-167 166c-151 148-176 169-253 207-138 67-286 87-425 56zm281-319c49-22 95-63 269-235 116-115 220-214 232-220s40-11 63-11 51 5 63 11 117 105 232 220c173 171 220 213 269 235 235 107 499-62 497-321 0-80-17-137-60-198-16-23-248-260-515-527l-486-485-505 505c-539 540-536 536-555 656-44 271 243 485 496 370z"/>
<path class="st0" d="m4581 5025c-213-106-232-123-239-209-5-61 22-108 78-137 61-33 89-26 296 77s228 120 241 198c8 52-29 121-78 146-66 34-92 28-298-75z"/>
<path class="st0" d="m395 3892c-119-61-196-107-208-123-46-64-26-161 42-206 64-43 107-34 303 63 95 47 184 95 196 107 73 67 69 166-8 231-25 21-42 26-83 26-46-1-76-13-242-98z"/>
<path class="st0" d="m4400 3964c-77-65-81-164-8-231 12-12 101-60 196-107 186-92 230-103 292-71 89 46 105 175 31 238-16 13-108 63-204 111-150 73-182 86-225 86-40 0-57-6-82-26z"/>
<path class="st0" d="m820 3015c-206-57-363-221-406-424-17-84-17-139 1-224 29-138 121-272 237-348l58-37-228-91c-125-50-251-107-279-126-91-61-159-159-188-270-13-50-15-158-15-717 0-641 1-660 20-698 13-26 34-47 60-60 39-20 53-20 2480-20s2441 0 2480 20c26 13 47 34 60 60 19 38 20 57 20 698 0 559-2 667-15 717-29 111-97 209-188 270-28 19-154 76-279 126l-228 91 58 37c148 96 252 286 252 461 0 295-256 551-550 550-249-1-474-170-535-405-19-76-19-214 0-290 33-125 128-253 240-323 49-30 49-31 25-40-163-63-423-171-458-190-117-66-204-202-225-355-6-48-15-86-18-85-123 46-389 155-389 159 0 3 19 16 42 29 22 13 67 49 98 81 215 218 213 559-4 774-39 39-94 83-123 98-66 35-191 67-263 67s-197-32-263-67c-29-15-84-59-123-98-110-108-164-238-164-393 0-172 90-344 230-440 38-26 69-49 69-52 1-4-289-122-379-155-13-4-18 11-27 82-20 146-100 277-212 347-32 20-273 121-470 197-22 9-20 12 48 59 109 77 184 183 216 307 19 72 19 212 0 282-46 173-172 313-341 377-88 33-240 42-324 19zm235-309c97-46 145-121 145-228-1-81-24-132-83-185-144-126-365-53-409 136-27 120 51 255 170 291 54 16 125 11 177-14zm3196 10c117-42 191-179 159-296-37-138-177-219-315-180-56 16-132 81-156 135-23 50-25 152-3 203 48 115 196 181 315 138zm-1610-481c98-35 158-113 166-218 7-79-21-151-79-203-54-48-95-64-168-64s-114 16-168 64c-138 125-93 356 84 420 52 19 112 19 165 1zm-1657-484c17-11 140-63 274-116 133-53 257-107 274-119 18-11 41-37 52-56 20-34 21-51 24-597l3-563h-656-655v555c0 604-1 594 56 647 18 16 126 65 284 128 140 56 266 111 280 121 31 23 27 23 64 0zm3214 0c15-10 142-64 282-121 158-63 266-112 284-128 57-53 56-43 56-647v-555h-655-656l3 563c3 541 4 563 23 596 11 19 31 42 45 52 14 11 140 66 281 123s267 111 280 120c29 20 25 20 57-3zm-1609-480c15-11 141-65 280-121 139-55 264-109 277-118 12-9 32-33 43-53 20-35 21-52 21-358v-321h-650-650v321c0 312 1 322 22 360 12 22 32 46 44 54s136 60 276 116c139 55 264 109 278 120 31 23 27 23 59 0z"/>
</g>
</svg>